<svg xmlns="http://www.w3.org/2000/svg" width="48" height="46" fill="none" viewBox="0 0 48 46">
  <style>
    :root {
      --accent: #d4af37;
      --outline: #f3f4f6;
      --secondary: #a0a5b5;
    }
    @media (prefers-color-scheme: light) {
      :root {
        --outline: #1f2937;
        --secondary: #6b7280;
      }
    }
    .outline { stroke: var(--outline); stroke-width: 1.5; }
    .accent { fill: var(--accent); }
    .secondary { stroke: var(--secondary); stroke-width: 1; }
  </style>
  <!-- Main shield shape -->
  <path class="outline accent" d="M25.946 44.938c-.664.845-2.021.375-2.021-.698V33.937a2.26 2.26 0 0 0-2.262-2.262H10.287c-.92 0-1.456-1.04-.92-1.788l7.48-10.471c1.07-1.497 0-3.578-1.842-3.578H1.237c-.92 0-1.456-1.04-.92-1.788L10.013.474c.214-.297.556-.474.92-.474h28.894c.92 0 1.456 1.04.92 1.788l-7.48 10.471c-1.07 1.498 0 3.579 1.842 3.579h11.377c.943 0 1.473 1.088.89 1.83L25.947 44.94z"/>
  <!-- Inner decorative elements -->
  <g fill="none" class="secondary" opacity="0.3">
    <ellipse cx="5.508" cy="14.704" rx="5.508" ry="14.704" transform="matrix(.00324 1 1 -.00324 -4.47 31.516)"/>
    <ellipse cx="10.399" cy="29.851" rx="10.399" ry="29.851" transform="matrix(.00324 1 1 -.00324 -39.328 7.883)"/>
  </g>
  <!-- Central accent elements -->
  <ellipse cx="5.508" cy="30.487" rx="5.508" ry="30.487" fill="var(--accent)" transform="rotate(89.814 -25.913 -14.639)scale(1 -1)"/>
  <ellipse cx="5.508" cy="30.599" rx="5.508" ry="30.599" fill="var(--accent)" transform="rotate(89.814 -32.644 -3.334)scale(1 -1)"/>
</svg>